<svg width="29" height="29" viewBox="0 0 29 29" fill="none" xmlns="http://www.w3.org/2000/svg">
<g id="ant-design:pie-chart-filled">
<path id="Vector" d="M24.4324 14.7554H14.6543V4.8435C14.6543 4.72154 14.5559 4.62176 14.4355 4.62176H13.7246C12.2898 4.62027 10.8689 4.90598 9.54331 5.4625C8.21773 6.01901 7.0136 6.83538 6 7.86476C5.00204 8.87324 4.20708 10.0688 3.65938 11.3849C3.09063 12.7514 2.80078 14.2011 2.80078 15.6979C2.80078 17.1946 3.09063 18.6415 3.65938 20.008C4.20898 21.3246 4.99648 22.5109 6 23.5282C7.00352 24.5454 8.17109 25.3437 9.47266 25.9008C10.8183 26.4795 12.2656 26.7765 13.7273 26.7739C15.1621 26.7754 16.5831 26.4897 17.9086 25.9332C19.2342 25.3767 20.4384 24.5603 21.452 23.5309C22.4555 22.5137 23.243 21.3301 23.7926 20.0108C24.3635 18.6467 24.6565 17.1796 24.6539 15.6979V14.9772C24.6512 14.8552 24.5527 14.7554 24.4324 14.7554ZM26.8359 13.2171L26.7648 12.4354C26.5324 9.8854 25.4168 7.47948 23.6176 5.66395C21.82 3.84334 19.4513 2.71679 16.9211 2.47916L16.1473 2.40709C16.0188 2.396 15.9094 2.49579 15.9094 2.62606V13.2614C15.9094 13.3834 16.0078 13.4832 16.1281 13.4832L26.6172 13.4555C26.7457 13.4527 26.8469 13.3446 26.8359 13.2171Z" fill="#9D90FA"/>
</g>
</svg>
