<svg width="24" height="24" viewBox="0 0 24 24" fill="none" xmlns="http://www.w3.org/2000/svg">
<g id="Frame 10">
<path id="home" d="M19.9453 11.0732C20.2969 11.3896 20.332 11.917 20.0508 12.2686C19.7344 12.6201 19.207 12.6553 18.8555 12.374L18.0117 11.6357V18.1748C18.0117 19.7568 16.7461 20.9873 15.1992 20.9873H5.07422C3.49219 20.9873 2.26172 19.7568 2.26172 18.1748V11.6357L1.38281 12.374C1.03125 12.6553 0.503906 12.6201 0.1875 12.2686C-0.09375 11.917 -0.0585938 11.3896 0.292969 11.0732L9.57422 3.19824C9.89062 2.95215 10.3477 2.95215 10.6641 3.19824L19.9453 11.0732ZM5.07422 19.2998H6.76172V13.9561C6.76172 13.1826 7.35938 12.5498 8.16797 12.5498H12.1055C12.8789 12.5498 13.5117 13.1826 13.5117 13.9561V19.2998H15.1992C15.7969 19.2998 16.3242 18.8076 16.3242 18.1748V10.1943L10.1367 4.95605L3.94922 10.1943V18.1748C3.94922 18.8076 4.44141 19.2998 5.07422 19.2998ZM8.44922 19.2998H11.8242V14.2373H8.44922V19.2998Z" fill="white"/>
</g>
</svg>
